Patient4_TMGait_0pt2_02_right_14_EMG.mot
version=1
nRows=23
nColumns=33
inDegrees=no
endheader
time	1LAddLong	2LGlutMax	3LGlutMed	4LIliopsoas	5LSemiMemb	6LBicFemLong	7LRecFem	8LVastMed	9LVastLat	10LGasMed	11LTibAnt	12lTibPost	13LPeroneusLong	14LSol	15LExtDigLong	16LFlexDigLong	17RAddLong	18RGlutMax	19RGlutMed	20RIliopsoas	21RSemiMemb	22RBicFemLong	23RRecFem	24RVastMed	25RVastLat	26RGasMed	27RTibAnt	28RTibPost	29RPeroneusLong	30RSol	31RExtDigLong	32RFlexDigLong
33.33	0.009308	0.094452	-0.13229	0.020447	0.011749	0.059814	0.022583	0.021515	0.082703	-0.059509	-0.020905	-0.001831	0.87158	0.23193	0.0177	0.010834	0.021515	-0.13412	0.020447	-0.16419	0.094452	0.03006	-0.02594	-0.052948	0.006104	-0.005798	0.13306	-0.005798	0.10864	-0.08606	-0.000916	-0.001984
33.331	0.010986	0.075989	-0.20462	0.002899	0.008698	0.019684	0.11963	0.042877	0.12177	-0.10941	0.01297	-0.002136	0.66788	0.29678	0.083466	0.016479	0.095367	-0.12772	-0.21042	-0.048676	0.089417	0.029449	0.008698	-0.07431	-0.000458	-0.005035	0.094147	-0.00824	-0.023346	-0.042419	0.000763	-0.001373
33.332	0.014954	0.089722	0.017853	-0.032501	0.011292	-0.17532	0.20813	0.02533	0.10315	-0.042267	0.051117	-0.000458	-1.0077	0.14389	-0.07019	0.005493	0.088959	-0.12238	-0.24628	0.034485	0.08667	0.025635	0.076294	-0.00412	0.020294	0.000305	-0.006409	-0.005035	-0.032196	0.003052	-0.000458	0.001984
33.333	0.011749	0.09491	0.23331	-0.023346	0.005646	-0.16556	0.16571	0.009003	0.093842	0.012665	0.033569	-0.004425	-0.34592	0.14648	-0.13519	-0.018005	0.057678	-0.077362	-0.1329	0.14389	0.093689	0.025024	0.14481	0.047913	0.019073	-0.012665	-0.1059	-0.006561	-0.033264	0.09613	0.000305	-0.011292
33.334	0.01297	0.085297	0.30762	0.005188	0.014191	-0.11658	0.071869	0.012817	0.083313	0.019836	-0.005951	-0.005493	0.13794	0.10529	-0.086975	0.000916	0.028381	-0.10162	-0.27649	0.16327	0.073395	0.020294	0.22797	0.034332	0.013885	-0.011139	-0.062561	-0.005798	-0.055695	0.11643	0.003204	-0.014496
33.335	0.011597	-0.019684	0.15137	-0.024872	0.017548	-0.057831	-0.01297	-0.010223	0.10788	0.036316	0.028687	-0.000458	0.65811	0.10468	-0.030823	-0.001068	-0.00885	-0.10101	-0.070343	0.087433	0.065918	0.046692	0.15045	0.043335	0.001526	-0.015564	0.097961	-0.006256	-0.017853	0.016174	0.001373	-0.015869
33.336	0.00946	-0.01358	0.11581	-0.02121	0.012054	0.029297	0.002747	-0.022736	0.052948	0.012817	0.034943	-0.002136	-0.035706	0.1564	-0.001526	0.008545	-0.034332	-0.12131	-0.1091	0.003204	0.073242	0.055695	0.066986	-0.016327	0.019379	-0.006561	0.52094	-0.00946	-0.03067	-0.050659	0.002136	-0.013885
33.337	0.00946	-0.057983	0.10819	0.010529	0.009918	0.023956	0.08255	-0.037842	-0.093384	-0.044708	0.014191	-0.002899	-1.1577	0.23773	0.018311	0.011139	-0.047607	-0.11871	-0.12741	-0.00412	0.072937	0.062103	-0.078278	-0.052643	0.021973	-0.001678	0.19348	-0.003967	-0.080872	-0.052185	-0.00061	-0.016327
33.338	0.001373	-0.068207	-0.06134	0.010681	0.011139	0.051422	0.12955	-0.015411	-0.34149	-0.088654	-0.037689	-0.000916	-0.68481	0.22003	-0.02594	0.005341	-0.040741	-0.13534	-0.18524	-0.001831	0.074005	0.065613	-0.09201	-0.092468	0.011292	-0.005493	0.095825	-0.006866	-0.083466	-0.086212	0.000153	-0.011444
33.339	0.004425	-0.10819	-0.13489	0.006409	0.003815	0.11154	0.12787	-0.008392	-0.63004	-0.079803	-0.039215	0.002136	0.1265	0.1059	-0.022125	0.00061	0.013885	-0.1564	-0.33783	-0.011444	0.079956	0.060425	-0.034332	-0.056763	0.018158	-0.003052	-0.15015	-0.005646	-0.046234	-0.070648	-0.002747	-0.00351
33.34	0.01358	-0.14938	-0.071106	-0.013275	-0.000916	-0.000153	0.13916	0.006714	-0.60242	-0.084534	-0.012512	0.005341	0.014648	0.11444	0.004425	-0.010223	0.093994	-0.10925	-0.242	-0.028992	0.073395	0.067291	-0.022888	-0.055389	0.021515	-0.003357	-0.77393	-0.004578	0.096741	0.083771	0	-0.012512
33.341	0.010529	-0.085907	0.27237	-0.016174	-0.00061	-0.06134	0.10346	0.013733	-0.36972	-0.057068	-0.015717	0.008545	-0.2327	0.064087	-0.038757	0.001984	0.11261	-0.083923	-0.36194	-0.04715	0.06958	0.051727	0.045166	-0.018616	0.030975	-0.003357	-0.92804	-0.00885	0.14236	0.13123	0.000916	-0.000305
33.342	0.006256	-0.065765	0.29846	-0.019684	0.00351	-0.037537	0.075836	0.01297	-0.23865	-0.036774	-0.019226	0.001831	0.089264	-0.0737	0.011139	0.012054	0.075531	-0.075531	-0.2533	-0.086517	0.062561	0.071259	0.097961	0.013733	0.028839	-0.000305	-0.6665	-0.007782	0.17731	0.076141	-0.001526	-0.002899
33.343	0.001526	-0.055084	0.19318	-0.015869	-0.001678	0.016174	-0.045624	0.019379	-0.159	-0.017853	-0.010529	0.006256	0.000458	-0.058289	0.096893	-0.00061	0.024261	-0.024109	-0.02243	-0.062256	0.053101	0.067749	0.12314	0.042267	0.043945	0.008698	-0.10529	-0.001831	0.16068	-0.020294	-0.002594	-0.002441
33.344	0.00824	-0.051117	0.081024	-0.00946	0.001221	0.025787	-0.21332	0.02655	-0.088348	-0.019989	-0.019073	0.003052	0.21011	-0.098724	0.027924	0.001068	-0.042114	-0.009003	0.019989	-0.014038	0.058899	0.067139	0.16571	0.06958	0.037994	0.006409	0.036011	-0.005188	0.1445	-0.054626	-0.003052	0.002136
33.345	0.008698	-0.016174	0.076294	-0.008545	0.013885	0.004883	-0.23193	0.028229	-0.007477	-0.015411	-0.004425	0.007019	0.023346	-0.013428	0.030365	0.011292	-0.084381	-0.055389	-0.34592	-0.070648	0.065765	0.077362	0.21347	0.13626	0.052185	0.001526	0.070801	-0.004425	0.032654	-0.034027	-0.001526	-0.006561
33.346	-0.003662	0.05661	0.14038	0.018921	0.012207	0.08667	-0.12985	0.064697	0.043182	-0.036774	0.018463	0.003815	0.09201	-0.05661	0.10346	0.017242	-0.09552	-0.10056	-0.19119	-0.045776	0.058594	0.080719	0.21378	0.10376	0.038757	-0.002441	0.13748	-0.005493	-0.011444	0.018921	-0.001678	-0.003357
33.347	-0.002289	0.13489	0.093994	-0.007782	-0.002136	0.14175	-0.13473	0.059357	0.071716	-0.03418	0.019531	0	0.005341	-0.20996	-0.045013	-0.002899	-0.084534	-0.095673	-0.3064	0.050659	0.051727	0.072632	0.16342	0.09552	0.035553	-0.005798	0.15595	-0.004425	0.005035	0.07019	-0.001373	0.000763
33.348	0.008087	0.15839	0.10178	-0.027313	0.004578	0.11292	-0.19501	0.013275	0.10956	-0.028534	0.005035	0.007782	0.014954	-0.16113	-0.075531	0.006409	-0.07309	-0.054626	-0.2179	-0.061646	0.06012	0.064392	0.086975	0.020599	0.024261	-0.00946	0.13016	-0.00351	-0.004425	0.14175	0.001221	-0.001831
33.349	0.01297	0.11139	-0.14252	-0.01297	0.008392	0.036774	-0.20386	-0.022583	0.16708	-0.032501	0.013885	0.006104	0.034485	-0.062256	-0.10178	0.002441	-0.061035	-0.058899	-0.22842	-0.1741	0.056458	0.060425	-0.010529	0.013123	0.025177	-0.007935	0.011749	-0.010529	0.002899	0.14053	0.00351	-0.006256
33.35	-0.002289	0.077515	-0.087433	0.003357	0.000763	0.042877	-0.15961	-0.035248	0.14191	-0.02243	0.007782	0.001984	0.002441	0.046539	-0.081024	0.003204	-0.03479	-0.045471	-0.20645	-0.18387	0.054169	0.031281	0.024261	0.014648	0.02533	-0.006561	-0.049438	-0.005798	-0.007629	0.099792	0.000153	-0.015869
33.351	-0.00412	0.04425	-0.005951	0.018158	-0.008545	0.17593	-0.11704	-0.036163	0.2272	-0.027313	0.020447	0.00473	-0.018463	-0.001526	-0.014801	0.000153	-0.018921	-0.060272	-0.33188	-0.13336	0.044556	0.032043	0.009155	-0.007019	0.026093	-0.006104	-0.065002	-0.006866	0	0.047607	0	-0.014648
33.352	-0.008545	-0.041656	-0.074005	-0.000458	0.002594	0.30502	-0.036163	-0.023193	0.27863	-0.006714	0.00351	0.005951	0.043182	-0.085754	-0.009766	-0.021057	-0.005798	-0.067902	-0.43564	0.065002	0.03418	0.025177	0.031738	0.005341	0.03067	-0.002289	-0.039673	-0.00351	0.015717	-0.001373	-0.000458	-0.012054
